<?xml version="1.0" encoding="utf-8"?>
<!-- Generator: Adobe Illustrator 18.0.0, SVG Export Plug-In . SVG Version: 6.00 Build 0)  -->
<!DOCTYPE svg PUBLIC "-//W3C//DTD SVG 1.1//EN" "http://www.w3.org/Graphics/SVG/1.1/DTD/svg11.dtd">
<svg version="1.1" id="Layer_1" xmlns="http://www.w3.org/2000/svg" xmlns:xlink="http://www.w3.org/1999/xlink" x="0px" y="0px"
	 viewBox="0 166.9 612 458.2" enable-background="new 0 166.9 612 458.2" xml:space="preserve">
<path fill="#D1A065" stroke="#010101" stroke-width="5" stroke-miterlimit="10" d="M571.9,250.6c0,0-32.2-24.6-52.3,1.8
	c-7.9-12.1-16.8-23.3-27.2-32.8c-32.1-29.4-79.4-44.8-121.7-48.5c-26.3-2.3-43.9-1.8-65.8-1.5c-20.9,0.3-36.6-0.8-62.8,1.5
	c-42.5,3.7-89.8,19.1-121.7,48.5c-10.5,9.6-19.6,21.1-27.7,33.6c-20.1-27.7-52.9-2.5-52.9-2.5c-35.5,27.2,15.8,62.6,21.5,66.4
	c-9,21.4-17.1,42.5-16.8,66.6c0.3,27.4,10.5,53.2,26.1,75.4c17.8,25.4,40.8,46.3,66.8,63c21.8,14.1,44.3,27.2,68.2,37.4
	c23.6,10.1,48.3,17.3,73.9,19.4c27.8,2.2,56.8,1.7,84.1-4.6c25.7-6,50.2-16.7,73.3-29.3c13.1-7.1,26-14.8,38.5-22.9
	c26.1-16.8,49-37.6,66.8-63c15.5-22.2,25.8-48.1,26.1-75.4c0.3-24.3-8-45.6-17-67.2C559.7,310.7,606,276.9,571.9,250.6z"/>
<path fill="#010101" d="M304.3,421.6c20.7,0.3,41.3-11.9,52.6-26.1c2.8-3.5,4.2-6.9,4.4-9.9c1.4-21.7-40.8-29.7-57-28.9
	c-16.3-0.8-58.4,7.1-57,28.9c0.2,3.1,1.5,6.4,4.4,9.9C263,409.6,284.8,421.9,304.3,421.6"/>
<g>
	<path fill="#010101" d="M161.4,383.3c0,0-0.3,0.3-0.9,0.9c-0.6,0.6-1.5,1.5-2.6,2.8c-0.5,0.7-1.1,1.4-1.6,2.2
		c-0.3,0.4-0.6,0.9-0.9,1.3c-0.3,0.5-0.6,1-0.9,1.5c-1.1,2.1-2.3,4.6-3.2,7.6c-1.8,5.8-2.7,13.4-1.6,21.7c0.6,4.2,1.6,8.5,3.5,12.8
		c0.9,2.1,1.9,4.3,3.1,6.4c1.2,2.1,2.6,4.1,4.3,6c1.7,1.9,3.6,3.5,5.8,5l0.9,0.6l0.8,0.5c0.5,0.4,1.1,0.7,1.7,1
		c0.6,0.3,1.2,0.7,1.8,1s1.2,0.6,1.8,0.9c5,2.3,10.6,3.7,16.2,3.4c0.7,0,1.4-0.1,2.1-0.2c0.7-0.1,1.4-0.2,2.1-0.4
		c0.7-0.2,1.3-0.3,2-0.5c0.7-0.3,1.5-0.5,2.2-0.8c0.7-0.3,1.3-0.5,2-0.8s1.4-0.6,2.1-1c1.4-0.7,2.7-1.4,4.1-2.2
		c5.5-3.1,10.9-6.9,17-10.2l2.3-1.2c0.8-0.4,1.6-0.8,2.4-1.1c1.5-0.7,3.1-1.4,4.7-2c3.2-1.3,6.4-2.6,9.7-3.8
		c6.5-2.4,13.3-4.6,20.3-6.2c3.5-0.8,7-1.5,10.6-2.1l1.3-0.2l1.4-0.2c0.9-0.1,1.7-0.3,2.7-0.4l2.7-0.3l2.7-0.2
		c7.2-0.6,14.5-0.7,21.7-0.5c7.2,0.2,14.3,0.5,21.5,0.9c7.3,0.4,14.5,1.5,21.4,3.2c7,1.6,13.8,3.8,20.3,6.2l2.5,0.9l2.4,1
		c1.6,0.7,3.2,1.3,4.7,2c1.5,0.7,3.1,1.3,4.7,2l0.3,0.1l0.4,0.2l0.6,0.3l1.1,0.5l2.4,1.2c6.1,3.3,11.5,7.1,17,10.2
		c2.7,1.6,5.5,2.9,8.3,4c0.7,0.2,1.4,0.5,2.1,0.7l1,0.3c0.4,0.1,0.8,0.2,1.1,0.3c0.7,0.1,1.3,0.3,2,0.3c0.7,0.1,1.4,0.2,2.1,0.2
		c5.6,0.3,11.2-1.2,16.2-3.4c2.5-1.1,4.9-2.5,7.1-4l0.8-0.6l0.7-0.6c0.5-0.4,1.1-0.8,1.5-1.2c0.4-0.4,0.9-0.8,1.3-1.2
		c0.4-0.5,0.9-0.9,1.3-1.3c1.7-1.9,3.1-3.9,4.3-6c1.2-2.1,2.2-4.3,3.1-6.4c1.8-4.3,2.9-8.6,3.5-12.8c1.1-8.4,0.2-15.9-1.6-21.8
		c-0.9-2.9-2-5.4-3.2-7.6c-0.3-0.5-0.6-1-0.9-1.5s-0.6-0.9-0.9-1.3c-0.5-0.9-1.1-1.6-1.6-2.2c-1.1-1.3-1.9-2.2-2.6-2.8
		c-0.6-0.6-0.9-0.9-0.9-0.9s0.4,0.3,1,0.8c0.7,0.5,1.7,1.4,2.9,2.6c2.3,2.4,5.5,6.4,7.9,12.3c2.4,5.9,4.1,13.7,3.6,22.7
		c-0.3,4.5-1,9.3-2.7,14.2c-0.8,2.4-1.9,4.9-3.3,7.2c-1.4,2.3-3,4.6-4.9,6.8c-0.5,0.5-1,1-1.5,1.6c-0.5,0.5-1.1,1-1.7,1.5
		c-0.6,0.5-1.1,0.9-1.7,1.3l-0.9,0.7l-0.9,0.6c-2.4,1.6-5,3.1-7.8,4.4c-5.5,2.5-11.8,4.2-18.5,3.9c-0.8,0-1.7-0.2-2.5-0.2
		c-0.8-0.1-1.7-0.3-2.6-0.5c-0.4-0.1-0.8-0.2-1.2-0.3l-1.2-0.3c-0.8-0.3-1.6-0.5-2.4-0.8c-3.1-1.2-6.1-2.7-9-4.3
		c-5.8-3.3-11.1-7.1-16.9-10.2l-2.1-1.1l-1.1-0.5l-0.6-0.3l-0.1-0.1c-0.1,0,0.1,0,0,0l-0.3-0.1c-1.6-0.6-3.1-1.3-4.7-2
		s-3.2-1.3-4.7-2l-2.4-1l-2.3-0.9c-6.4-2.4-13-4.4-19.7-6s-13.6-2.7-20.6-3c-7.1-0.4-14.2-0.7-21.3-0.9c-7.1-0.2-14.2,0-21.2,0.5
		l-2.6,0.2l-2.6,0.3c-0.9,0.1-1.8,0.2-2.6,0.4c-0.4,0.1-0.9,0.1-1.3,0.2l-1.3,0.2c-3.4,0.6-6.8,1.3-10.2,2.1
		c-6.7,1.6-13.3,3.7-19.7,6.1c-3.2,1.2-6.4,2.4-9.5,3.8c-1.5,0.6-3.1,1.3-4.6,2c-0.7,0.3-1.5,0.7-2.2,1l-2.2,1.1
		c-5.7,3.1-11.1,6.9-16.9,10.2c-1.4,0.8-2.9,1.6-4.4,2.3c-0.7,0.4-1.5,0.7-2.3,1s-1.6,0.6-2.4,1c-0.7,0.3-1.5,0.5-2.2,0.8l-1.3,0.4
		c-0.4,0.1-0.8,0.2-1.2,0.3c-0.8,0.1-1.7,0.3-2.5,0.4c-0.8,0.1-1.7,0.2-2.5,0.2c-6.7,0.3-13-1.3-18.5-3.9c-0.7-0.3-1.4-0.6-2-1
		c-0.7-0.3-1.3-0.7-2-1.1c-0.6-0.4-1.3-0.7-1.9-1.1l-1-0.6l-0.9-0.6c-2.4-1.6-4.7-3.6-6.7-5.7c-1.9-2.1-3.5-4.4-4.9-6.8
		c-1.4-2.3-2.5-4.8-3.4-7.2c-1.6-4.9-2.4-9.7-2.7-14.2c-0.5-9,1.2-16.8,3.6-22.8c2.4-6,5.6-9.9,8-12.3c1.2-1.2,2.2-2.1,2.9-2.6
		C161.1,383.6,161.4,383.3,161.4,383.3z"/>
</g>
<path fill="#010101" d="M305.7,428.6c0,0-39.7-4.3-89,22c7.4,25.9,19.7,52.5,37.1,73.1c11,13.1,34.4,25.9,52.1,26.5
	c17.8-0.6,41.1-13.3,52.1-26.5c17.3-20.6,29.4-47.1,36.8-72.9C349.4,423,305.7,428.6,305.7,428.6z"/>
<g>
	<g>
		<path fill="#010101" d="M166.8,408.2c0,0-0.8,0.1-2.4,0.3c-1.5,0.2-3.8,0.7-6.6,1.4c-2.8,0.7-6.2,1.7-10,3
			c-3.8,1.3-8.1,3-12.6,4.9c-1.1,0.5-2.3,1-3.5,1.6c-1.2,0.5-2.4,1.1-3.5,1.7c-1.2,0.6-2.4,1.2-3.6,1.8c-1.2,0.6-2.5,1.3-3.7,2
			c-1.3,0.7-2.5,1.4-3.8,2.1s-2.5,1.5-3.8,2.2c-2.5,1.6-5.2,3.1-7.8,4.8c-1.3,0.8-2.6,1.7-3.9,2.5c-1.3,0.9-2.6,1.8-3.9,2.7
			c-2.6,1.8-5.2,3.7-7.9,5.6c-2.6,1.9-5.2,3.9-7.8,5.9c-2.6,2.1-5.1,4.2-7.7,6.2c-2.5,2.1-5,4.3-7.6,6.4c-2.5,2.2-4.9,4.4-7.3,6.6
			c-2.4,2.2-4.7,4.5-7.1,6.6c-2.3,2.2-4.5,4.4-6.8,6.6c-2.3,2.1-4.3,4.4-6.4,6.5c-2.1,2.1-4.2,4.2-6.1,6.3c-1.9,2.1-3.8,4.1-5.7,6.1
			c-1.8,2-3.5,3.9-5.2,5.8c-3.4,3.7-6.3,7.2-9,10.2c-1.3,1.5-2.6,3-3.7,4.3s-2.2,2.6-3.1,3.7c-1.9,2.2-3.4,4-4.4,5.2
			c-1,1.2-1.6,1.8-1.6,1.8s0.5-0.7,1.3-2c0.9-1.3,2.2-3.2,3.8-5.6c0.8-1.2,1.8-2.5,2.8-4c1-1.4,2.2-2.9,3.4-4.6
			c1.2-1.6,2.5-3.4,3.9-5.2c1.3-1.8,2.9-3.7,4.4-5.7c1.6-2,3.2-4,4.9-6.1c1.8-2.1,3.6-4.2,5.4-6.4c1.8-2.2,3.8-4.4,5.8-6.6
			c1-1.1,2-2.3,3.1-3.4c1-1.1,2.1-2.3,3.2-3.4c2.2-2.3,4.4-4.6,6.7-6.9s4.6-4.6,7-6.8s4.9-4.5,7.4-6.7c2.5-2.2,5.1-4.4,7.6-6.6
			c2.6-2.1,5.2-4.2,7.9-6.3c2.7-2,5.3-4.1,8-6c2.7-1.9,5.4-3.8,8.1-5.6c1.4-0.9,2.7-1.8,4.1-2.6c1.4-0.8,2.7-1.7,4.1-2.5
			c1.3-0.8,2.7-1.6,4-2.4c1.4-0.8,2.7-1.5,4-2.2c1.3-0.7,2.7-1.4,4-2.1c1.3-0.7,2.6-1.3,3.9-2c5.2-2.6,10.3-4.6,15-6.4
			s9.2-3.1,13.1-4.1c4-1.1,7.5-1.7,10.4-2.1c2.9-0.5,5.2-0.6,6.8-0.7C165.9,408.1,166.8,408.2,166.8,408.2z"/>
	</g>
	<g>
		<path fill="#010101" d="M174.5,421.9c0,0-0.6,0.6-1.7,1.6c-1.1,1.1-2.7,2.7-4.7,4.7c-2,2-4.4,4.5-7.2,7.3c-2.8,2.8-5.9,6-9.2,9.5
			c-3.4,3.5-7,7.3-10.8,11.4c-3.8,4.1-7.7,8.4-11.8,12.9c-2,2.2-4.1,4.6-6.1,6.9c-2,2.4-4.1,4.7-6.2,7.2c-4.1,4.8-8.3,9.8-12.3,14.9
			l-3,3.8c-1,1.3-2,2.5-3,3.8c-2,2.5-3.9,5.1-5.8,7.6c-3.8,5.1-7.4,10.2-10.8,15.2c-1.7,2.5-3.3,5-4.9,7.4c-1.6,2.4-3.1,4.9-4.5,7.2
			c-1.4,2.4-2.7,4.7-4.1,7c-1.3,2.3-2.5,4.5-3.6,6.6c-1.2,2.1-2.1,4.2-3.1,6.2s-1.9,3.9-2.7,5.7c-1.7,3.6-2.9,6.8-3.9,9.4
			c-0.6,1.3-0.9,2.5-1.3,3.6c-0.4,1-0.7,1.9-0.9,2.6c-0.5,1.4-0.8,2.2-0.8,2.2s0.2-0.8,0.5-2.3c0.2-0.7,0.4-1.7,0.6-2.7
			c0.2-1.1,0.5-2.3,0.9-3.7c0.8-2.7,1.7-6.1,3.1-9.8c0.7-1.9,1.4-3.9,2.2-5.9c0.4-1,0.9-2.1,1.3-3.2c0.4-1.1,0.9-2.2,1.4-3.3
			c1-2.2,2.1-4.6,3.3-6.9s2.5-4.8,3.8-7.3c1.4-2.4,2.8-5,4.3-7.5c1.5-2.5,3.1-5.1,4.7-7.7c3.3-5.1,6.8-10.4,10.6-15.6
			c1.9-2.6,3.8-5.2,5.8-7.8s4-5.2,6-7.7c4.1-5.1,8.3-10,12.5-14.9c4.2-4.8,8.5-9.5,12.7-13.9c4.2-4.5,8.4-8.6,12.3-12.5
			c2-2,3.9-3.9,5.9-5.7c1.9-1.8,3.8-3.5,5.6-5.2c7.2-6.6,13.4-11.9,17.8-15.5c2.2-1.8,4-3.2,5.2-4.1
			C173.8,422.4,174.5,421.9,174.5,421.9z"/>
	</g>
	<g>
		<path fill="#010101" d="M190.8,430.1c0,0-0.4,0.7-1.2,2.1c-0.8,1.3-1.9,3.3-3.3,5.8c-1.4,2.5-3.1,5.6-5.1,9.1
			c-1.9,3.5-4.1,7.5-6.4,11.9c-1.2,2.2-2.4,4.5-3.6,6.8c-1.2,2.4-2.5,4.8-3.8,7.3c-2.6,5-5.2,10.4-8,15.9
			c-2.7,5.5-5.4,11.3-8.2,17.2c-2.7,5.9-5.4,11.9-8,18c-1.3,3-2.6,6.1-3.8,9.1c-1.2,3-2.5,6.1-3.6,9.1c-2.3,6.1-4.6,12-6.6,17.8
			c-0.5,1.5-1,2.9-1.5,4.3c-0.5,1.4-0.9,2.9-1.4,4.3c-0.5,1.4-0.9,2.8-1.4,4.2c-0.4,1.4-0.8,2.8-1.2,4.1c-0.8,2.7-1.6,5.3-2.3,7.9
			c-0.7,2.6-1.5,5-2,7.4c-0.6,2.4-1.2,4.7-1.7,6.9c-0.5,2.2-0.9,4.3-1.4,6.2c-0.5,2-0.8,3.8-1.1,5.5c-0.3,1.7-0.6,3.3-0.9,4.7
			c-0.9,5.7-1.5,9-1.5,9s0-0.8,0.1-2.4c0.1-1.5,0.1-3.8,0.4-6.7c0.1-1.4,0.3-3,0.5-4.8c0.2-1.7,0.4-3.6,0.7-5.6s0.6-4.1,0.9-6.4
			c0.4-2.2,0.8-4.6,1.3-7c0.9-4.9,2.1-10.2,3.5-15.7c0.4-1.4,0.7-2.8,1.1-4.2s0.8-2.8,1.2-4.3c0.8-2.9,1.7-5.8,2.6-8.8s1.9-6,3-9
			c1-3.1,2.1-6.1,3.3-9.2c2.3-6.1,4.8-12.3,7.3-18.4c2.7-6.1,5.4-12.1,8.2-18c0.7-1.5,1.4-2.9,2.1-4.4c0.7-1.4,1.5-2.9,2.2-4.3
			c1.4-2.9,2.9-5.7,4.3-8.4c1.4-2.8,2.9-5.4,4.3-8.1c1.5-2.6,2.9-5.2,4.3-7.6c2.8-5,5.6-9.6,8.2-13.8c2.6-4.2,5.1-8.1,7.3-11.4
			c2.2-3.4,4.2-6.3,5.9-8.7s3-4.2,3.9-5.5C190.3,430.8,190.8,430.1,190.8,430.1z"/>
	</g>
	<g>
		<path fill="#231F20" d="M165,406.2c0,0,0.6-0.2,1.4-0.1c0.4,0,1,0.1,1.5,0.4c0.3,0.2,0.5,0.4,0.7,0.7c0.1,0.2,0.2,0.3,0.2,0.5
			c0,0.1,0,0,0,0.2v0.1c0,0.1,0,0.1,0,0.2c0,0.8-0.3,1.4-0.7,1.8c-0.4,0.4-0.8,0.8-1.1,1c-0.7,0.5-1.2,0.7-1.2,0.7s0.1-0.1,0.2-0.3
			c0.1-0.2,0.4-0.5,0.6-0.8c0.3-0.3,0.6-0.7,0.8-1.1c0.1-0.2,0.2-0.4,0.3-0.6c0.1-0.2,0.1-0.4,0.1-0.6c0-0.1,0-0.1,0-0.2V408l0,0
			c0-0.1-0.1-0.2-0.1-0.3c-0.1-0.2-0.2-0.3-0.4-0.5c-0.3-0.3-0.8-0.5-1.1-0.6c-0.4-0.1-0.7-0.2-1-0.3
			C165.1,406.2,165,406.2,165,406.2z"/>
	</g>
	<g>
		<path fill="#231F20" d="M172.4,420.1c0,0,0.5-0.3,1.3-0.6c0.4-0.1,1-0.2,1.6-0.1c0.3,0.1,0.6,0.2,0.9,0.4c0.1,0.1,0.3,0.2,0.4,0.4
			c0,0.1,0,0,0.1,0.1v0.1c0,0.1,0.1,0.1,0.1,0.2c0.3,0.8,0.1,1.4-0.1,2c-0.2,0.5-0.5,1-0.8,1.3c-0.5,0.7-1,1.1-1,1.1s0-0.1,0.1-0.4
			c0.1-0.2,0.2-0.6,0.4-1c0.1-0.4,0.3-0.8,0.4-1.3c0.1-0.2,0.1-0.5,0.1-0.7c0-0.2,0-0.4-0.1-0.6c0-0.1-0.1-0.1-0.1-0.2v-0.1l0,0
			c-0.1-0.1-0.1-0.2-0.2-0.2c-0.1-0.1-0.3-0.2-0.5-0.3c-0.4-0.2-0.9-0.2-1.3-0.2s-0.8,0-1,0C172.6,420.1,172.4,420.1,172.4,420.1z"
			/>
	</g>
	<g>
		<path fill="#231F20" d="M188.5,429.3c0,0,0.4-0.4,1.2-0.8c0.4-0.2,0.9-0.4,1.5-0.3c0.3,0,0.7,0.1,1,0.3c0.1,0.1,0.3,0.2,0.4,0.3
			c0,0,0,0,0.1,0.1l0.1,0.1c0,0.1,0.1,0.1,0.1,0.2c0.4,0.7,0.4,1.4,0.3,1.9c-0.1,0.6-0.3,1-0.6,1.4c-0.4,0.7-0.8,1.2-0.8,1.2
			s0-0.1,0-0.4c0-0.3,0.1-0.6,0.2-1c0.1-0.4,0.2-0.9,0.2-1.3c0-0.2,0-0.5,0-0.7s-0.1-0.4-0.2-0.5c-0.1-0.1-0.2-0.3-0.2-0.3
			c-0.1-0.1-0.1-0.1-0.2-0.2c-0.2-0.1-0.4-0.2-0.6-0.2c-0.4-0.1-0.9,0-1.3,0c-0.4,0.1-0.7,0.1-1,0.2
			C188.6,429.3,188.5,429.3,188.5,429.3z"/>
	</g>
</g>
<path fill="#AA7846" d="M61.7,305.2c-2.4,1.1-5.5,0-10.1-4.9c-10.8-11.6-23.4-29.4-8.5-42.7c9.2-8.2,31-12.1,40.2-1.2
	c4,4.7-0.2,8.4-2.7,12.4c-2.8,4.4-5.4,8.9-7.8,13.5C68.5,290.4,66.8,302.9,61.7,305.2z"/>
<path fill="#AA7846" d="M547.1,305.2c2.4,1.1,5.5,0,10.1-4.9c10.8-11.6,23.4-29.4,8.5-42.7c-9.2-8.2-31-12.1-40.2-1.2
	c-4,4.7,0.2,8.4,2.7,12.4c2.8,4.4,5.4,8.9,7.8,13.5C540.3,290.4,542,302.9,547.1,305.2z"/>
<ellipse fill="#010101" cx="374.2" cy="313.8" rx="24.1" ry="27.8"/>
<ellipse fill="#010101" cx="234.4" cy="313.8" rx="24.1" ry="27.8"/>
<path fill="#DCB3D4" d="M305.7,453.3c0,0-38.8-8.5-78.2,12.6c5.9,20.6,19.6,45.5,34.7,59.5c10.1,9.3,29.5,19.6,43.7,20.1
	c14.2-0.5,30.9-9.7,41.7-18.1c13.6-10.5,30.5-40.7,36.4-61.3C347.7,443.8,305.7,453.3,305.7,453.3z"/>
<ellipse fill="#FFFFFF" cx="227.5" cy="303.4" rx="6" ry="6.9"/>
<ellipse fill="#FFFFFF" cx="367.3" cy="303.4" rx="6" ry="6.9"/>
<g>
	<g>
		<path fill="#010101" d="M445.2,408.2c0,0,0.8,0,2.4,0c1.6,0.1,3.9,0.2,6.8,0.7c2.9,0.5,6.4,1.1,10.4,2.1c4,1,8.4,2.3,13.1,4.1
			c4.7,1.8,9.8,3.8,15,6.4c1.3,0.6,2.6,1.3,3.9,2c1.3,0.7,2.7,1.4,4,2.1s2.7,1.5,4,2.2c1.4,0.7,2.7,1.5,4,2.4
			c1.3,0.8,2.7,1.6,4.1,2.5c1.3,0.9,2.7,1.7,4.1,2.6c2.7,1.7,5.4,3.6,8.1,5.6c2.7,1.9,5.3,4,8,6c2.6,2.1,5.2,4.2,7.9,6.3
			c2.5,2.2,5.1,4.4,7.6,6.6c2.5,2.3,4.9,4.5,7.4,6.7c2.4,2.3,4.7,4.6,7,6.8c2.3,2.3,4.5,4.6,6.7,6.9c1.1,1.1,2.2,2.3,3.2,3.4
			c1,1.1,2.1,2.3,3.1,3.4c2,2.2,4,4.4,5.8,6.6c1.9,2.2,3.7,4.3,5.4,6.4c1.7,2.1,3.3,4.2,4.9,6.1c1.5,2,3.1,3.8,4.4,5.7
			c1.4,1.8,2.7,3.6,3.9,5.2c1.2,1.6,2.4,3.2,3.4,4.6c1,1.4,1.9,2.8,2.8,4c1.7,2.4,2.9,4.3,3.8,5.6c0.9,1.3,1.3,2,1.3,2
			s-0.5-0.6-1.6-1.8c-1-1.2-2.5-2.9-4.4-5.2c-0.9-1.1-2-2.3-3.1-3.7c-1.2-1.3-2.4-2.8-3.7-4.3c-2.7-3.1-5.6-6.5-9-10.2
			c-1.7-1.9-3.4-3.8-5.2-5.8c-1.8-2-3.7-4-5.7-6.1c-1.9-2.1-4-4.2-6.1-6.3c-2.1-2.1-4.2-4.4-6.4-6.5c-2.2-2.2-4.5-4.4-6.8-6.6
			c-2.3-2.2-4.7-4.4-7.1-6.6c-2.4-2.2-4.9-4.4-7.3-6.6c-2.5-2.1-5-4.3-7.6-6.4c-2.6-2.1-5.1-4.2-7.7-6.2c-2.6-2-5.2-4-7.8-5.9
			c-2.7-1.9-5.2-3.8-7.9-5.6c-1.3-0.9-2.6-1.8-3.9-2.7c-1.3-0.9-2.6-1.7-3.9-2.5c-2.6-1.7-5.2-3.2-7.8-4.8c-1.3-0.7-2.6-1.5-3.8-2.2
			c-1.3-0.7-2.5-1.4-3.8-2.1c-1.3-0.7-2.5-1.3-3.7-2c-1.2-0.6-2.5-1.2-3.6-1.8c-1.2-0.6-2.4-1.2-3.5-1.7c-1.2-0.5-2.3-1.1-3.5-1.6
			c-4.5-2-8.8-3.6-12.6-4.9s-7.2-2.3-10-3c-2.8-0.7-5.1-1.2-6.6-1.4C446.1,408.2,445.2,408.2,445.2,408.2z"/>
	</g>
	<g>
		<path fill="#010101" d="M437.5,421.9c0,0,0.6,0.5,1.8,1.4s3,2.3,5.2,4.1c4.4,3.6,10.6,8.9,17.8,15.5c1.8,1.7,3.6,3.4,5.6,5.2
			c1.9,1.8,3.9,3.7,5.9,5.7c4,3.9,8.2,8.1,12.3,12.5c4.2,4.4,8.5,9.1,12.7,13.9c4.2,4.9,8.4,9.8,12.5,14.9c2,2.5,4.1,5.1,6,7.7
			c2,2.6,3.9,5.2,5.8,7.8c3.8,5.2,7.3,10.5,10.6,15.6c1.7,2.6,3.2,5.2,4.7,7.7c1.5,2.5,2.9,5.1,4.3,7.5c1.3,2.5,2.6,4.9,3.8,7.3
			c1.2,2.4,2.2,4.7,3.3,6.9c0.5,1.1,1,2.2,1.4,3.3s0.9,2.1,1.3,3.2c0.9,2.1,1.6,4.1,2.2,5.9c1.4,3.7,2.3,7.1,3.1,9.8
			c0.4,1.4,0.7,2.6,0.9,3.7c0.2,1.1,0.4,2,0.6,2.7c0.3,1.5,0.5,2.3,0.5,2.3s-0.3-0.8-0.8-2.2c-0.3-0.7-0.6-1.6-0.9-2.6
			c-0.4-1-0.7-2.2-1.3-3.6c-1.1-2.6-2.3-5.8-3.9-9.4c-0.8-1.8-1.6-3.7-2.7-5.7c-1-2-2-4.1-3.1-6.2c-1.2-2.1-2.3-4.4-3.6-6.6
			s-2.6-4.6-4.1-7c-1.5-2.3-2.9-4.8-4.5-7.2c-1.6-2.4-3.2-4.9-4.9-7.4c-3.4-5-7.1-10.1-10.8-15.2c-1.9-2.6-3.8-5.1-5.8-7.6
			c-1-1.3-2-2.5-3-3.8l-3-3.8c-4-5.1-8.2-10-12.3-14.9c-2.1-2.4-4.1-4.8-6.2-7.2c-2.1-2.3-4.1-4.7-6.1-6.9c-4.1-4.5-8-8.9-11.8-12.9
			c-3.8-4.1-7.4-7.9-10.8-11.4c-3.4-3.5-6.5-6.7-9.2-9.5c-2.8-2.8-5.2-5.3-7.2-7.3c-2-2-3.6-3.6-4.7-4.7
			C438.1,422.5,437.5,421.9,437.5,421.9z"/>
	</g>
	<g>
		<path fill="#010101" d="M421.2,430.1c0,0,0.5,0.7,1.4,1.9c0.9,1.3,2.3,3.1,3.9,5.5c1.7,2.4,3.7,5.3,5.9,8.7
			c2.2,3.4,4.7,7.2,7.3,11.4c2.6,4.2,5.4,8.8,8.2,13.8c1.4,2.5,2.8,5,4.3,7.6c1.4,2.6,2.9,5.3,4.3,8.1c1.4,2.8,2.9,5.6,4.3,8.4
			c0.7,1.4,1.4,2.9,2.2,4.3c0.7,1.5,1.4,2.9,2.1,4.4c2.8,5.9,5.5,12,8.2,18c2.6,6.1,5,12.3,7.3,18.4c1.1,3.1,2.3,6.1,3.3,9.2
			c1,3,2,6,3,9c0.9,3,1.9,5.9,2.6,8.8c0.4,1.4,0.8,2.9,1.2,4.3c0.4,1.4,0.7,2.8,1.1,4.2c1.5,5.5,2.6,10.8,3.5,15.7
			c0.4,2.5,0.9,4.8,1.3,7c0.3,2.2,0.6,4.4,0.9,6.4s0.5,3.9,0.7,5.6s0.3,3.3,0.5,4.8c0.2,2.9,0.3,5.2,0.4,6.7s0.1,2.4,0.1,2.4
			s-0.5-3.3-1.5-9c-0.3-1.4-0.6-3-0.9-4.7c-0.3-1.7-0.6-3.6-1.1-5.5c-0.4-2-0.9-4-1.4-6.2s-1.1-4.5-1.7-6.9c-0.6-2.4-1.3-4.9-2-7.4
			c-0.7-2.6-1.5-5.2-2.3-7.9c-0.4-1.4-0.8-2.7-1.2-4.1c-0.5-1.4-0.9-2.8-1.4-4.2c-0.5-1.4-0.9-2.8-1.4-4.3c-0.5-1.4-1-2.9-1.5-4.3
			c-2-5.8-4.3-11.8-6.6-17.8c-1.1-3-2.4-6-3.6-9.1c-1.2-3-2.5-6.1-3.8-9.1c-2.6-6.1-5.2-12.1-8-18c-2.7-5.9-5.4-11.7-8.2-17.2
			c-2.7-5.5-5.4-10.9-8-15.9c-1.3-2.5-2.6-5-3.8-7.3c-1.2-2.4-2.4-4.6-3.6-6.8c-2.4-4.4-4.5-8.3-6.4-11.9c-2-3.5-3.7-6.6-5.1-9.1
			c-1.4-2.5-2.6-4.5-3.3-5.8C421.7,430.9,421.2,430.1,421.2,430.1z"/>
	</g>
	<g>
		<path fill="#231F20" d="M447,406.2c0,0-0.1,0-0.4,0.1c-0.2,0.1-0.6,0.2-1,0.3c-0.4,0.1-0.8,0.3-1.1,0.6c-0.2,0.1-0.3,0.3-0.4,0.5
			c0,0.1-0.1,0.2-0.1,0.3c0,0,0,0.1,0,0v0.1c0,0.1,0,0.1,0,0.2s0,0.4,0.1,0.6c0.1,0.2,0.2,0.4,0.3,0.6c0.2,0.4,0.6,0.8,0.8,1.1
			c0.3,0.3,0.5,0.6,0.6,0.8c0.1,0.2,0.2,0.3,0.2,0.3s-0.5-0.2-1.2-0.7c-0.4-0.2-0.8-0.5-1.1-1c-0.4-0.4-0.7-1-0.7-1.8
			c0-0.1,0-0.1,0-0.2v-0.1c0-0.1,0-0.1,0-0.2c0-0.2,0.1-0.3,0.2-0.5c0.2-0.3,0.5-0.5,0.7-0.7c0.5-0.3,1.1-0.4,1.5-0.4
			C446.4,406,447,406.2,447,406.2z"/>
	</g>
	<g>
		<path fill="#231F20" d="M439.6,420.1c0,0-0.1,0-0.4,0c-0.2,0-0.6,0-1,0s-0.9,0.1-1.3,0.2c-0.2,0.1-0.4,0.2-0.5,0.3
			c-0.1,0.1-0.1,0.1-0.2,0.2c0,0,0,0.1,0,0v0.1c0,0.1-0.1,0.1-0.1,0.2s-0.1,0.4-0.1,0.6c0,0.2,0,0.4,0.1,0.7
			c0.1,0.5,0.3,0.9,0.4,1.3c0.2,0.4,0.3,0.7,0.4,1c0.1,0.2,0.1,0.4,0.1,0.4s-0.4-0.4-1-1.1c-0.3-0.3-0.6-0.8-0.8-1.3
			c-0.2-0.5-0.4-1.2-0.1-2c0-0.1,0.1-0.1,0.1-0.2v-0.1c0.1-0.1,0.1-0.1,0.1-0.1c0.1-0.1,0.2-0.3,0.4-0.4c0.3-0.2,0.6-0.4,0.9-0.4
			c0.6-0.1,1.1-0.1,1.6,0.1C439.1,419.8,439.6,420.1,439.6,420.1z"/>
	</g>
	<g>
		<path fill="#231F20" d="M423.5,429.3c0,0-0.1,0-0.4-0.1c-0.2,0-0.6-0.1-1-0.2c-0.4,0-0.9-0.1-1.3,0c-0.2,0-0.4,0.1-0.6,0.2
			c-0.1,0.1-0.2,0.1-0.2,0.2c0,0-0.2,0.2-0.2,0.3c-0.1,0.1-0.2,0.3-0.2,0.5s0,0.4,0,0.7c0,0.5,0.1,0.9,0.2,1.3
			c0.1,0.4,0.2,0.8,0.2,1c0,0.3,0,0.4,0,0.4s-0.3-0.5-0.8-1.2c-0.2-0.4-0.4-0.8-0.6-1.4c-0.1-0.6-0.2-1.2,0.3-1.9
			c0-0.1,0.1-0.1,0.1-0.2l0.1-0.1c0.1-0.1,0.1-0.1,0.1-0.1c0.1-0.1,0.3-0.2,0.4-0.3c0.3-0.2,0.7-0.2,1-0.3c0.6,0,1.1,0.1,1.5,0.3
			C423.1,428.9,423.5,429.3,423.5,429.3z"/>
	</g>
</g>
</svg>
