<?xml version="1.0"?>
<svg width="620" height="500" xmlns="http://www.w3.org/2000/svg" xmlns:svg="http://www.w3.org/2000/svg">
 <g>
  <title>Layer 1</title>
  <path id="svg_1" d="m574.760494,109.807513c0,0 -32.2,-24.6 -52.3,1.8c-7.9,-12.1 -16.8,-23.3 -27.2,-32.8c-32.1,-29.4 -79.4,-44.8 -121.7,-48.5c-26.3,-2.3 -43.9,-1.8 -65.8,-1.5c-20.9,0.3 -36.6,-0.8 -62.8,1.5c-42.5,3.7 -89.8,19.1 -121.7,48.5c-10.5,9.6 -19.6,21.1 -27.7,33.6c-20.1,-27.7 -52.9,-2.5 -52.9,-2.5c-35.5,27.2 15.8,62.6 21.5,66.4c-9,21.4 -17.1,42.5 -16.8,66.6c0.3,27.4 10.5,53.2 26.1,75.4c17.8,25.4 40.8,46.3 66.8,63c21.8,14.1 44.3,27.2 68.2,37.4c23.6,10.1 48.3,17.3 73.9,19.4c27.8,2.2 56.8,1.7 84.1,-4.6c25.7,-6 50.2,-16.7 73.3,-29.3c13.1,-7.1 26,-14.8 38.5,-22.9c26.1,-16.8 49,-37.6 66.8,-63c15.5,-22.2 25.8,-48.1 26.1,-75.4c0.3,-24.3 -8,-45.6 -17,-67.2c8.4,-5.8 54.7,-39.6 20.6,-65.9z" stroke-miterlimit="10" stroke-width="16" stroke="#010101" fill="#db914c"/>
  <path stroke-width="3" stroke="#000000" id="svg_2" d="m307.160494,274.881587c20.7,0.3 41.3,-11.9 52.6,-26.1c2.8,-3.5 4.2,-6.9 4.4,-9.9c1.4,-21.7 -40.8,-29.7 -57,-28.9c-16.3,-0.8 -58.4,7.1 -57,28.9c0.2,3.1 1.5,6.4 4.4,9.9c11.3,14.1 33.1,26.4 52.6,26.1" fill="#010101"/>
  <g id="svg_3">
   <path stroke="#000000" stroke-width="7" id="svg_4" d="m164.260494,242.507513c0,0 -0.3,0.3 -0.9,0.9c-0.6,0.6 -1.5,1.5 -2.6,2.8c-0.5,0.7 -1.1,1.4 -1.6,2.2c-0.3,0.4 -0.6,0.9 -0.9,1.3c-0.3,0.5 -0.6,1 -0.9,1.5c-1.1,2.1 -2.3,4.6 -3.2,7.6c-1.8,5.8 -2.7,13.4 -1.6,21.7c0.6,4.2 1.6,8.5 3.5,12.8c0.9,2.1 1.9,4.3 3.1,6.4c1.2,2.1 2.6,4.1 4.3,6c1.7,1.9 3.6,3.5 5.8,5l0.9,0.6l0.8,0.5c0.5,0.4 1.1,0.7 1.7,1c0.6,0.3 1.2,0.7 1.8,1s1.2,0.6 1.8,0.9c5,2.3 10.6,3.7 16.2,3.4c0.7,0 1.4,-0.1 2.1,-0.2c0.7,-0.1 1.4,-0.2 2.1,-0.4c0.7,-0.2 1.3,-0.3 2,-0.5c0.7,-0.3 1.5,-0.5 2.2,-0.8c0.7,-0.3 1.3,-0.5 2,-0.8s1.4,-0.6 2.1,-1c1.4,-0.7 2.7,-1.4 4.1,-2.2c5.5,-3.1 10.9,-6.9 17,-10.2l2.3,-1.2c0.8,-0.4 1.6,-0.8 2.4,-1.1c1.5,-0.7 3.1,-1.4 4.7,-2c3.2,-1.3 6.4,-2.6 9.7,-3.8c6.5,-2.4 13.3,-4.6 20.3,-6.2c3.5,-0.8 7,-1.5 10.6,-2.1l1.3,-0.2l1.4,-0.2c0.9,-0.1 1.7,-0.3 2.7,-0.4l2.7,-0.3l2.7,-0.2c7.2,-0.6 14.5,-0.7 21.7,-0.5c7.2,0.2 14.3,0.5 21.5,0.9c7.3,0.4 14.5,1.5 21.4,3.2c7,1.6 13.8,3.8 20.3,6.2l2.5,0.9l2.4,1c1.6,0.7 3.2,1.3 4.7,2c1.5,0.7 3.1,1.3 4.7,2l0.3,0.1l0.4,0.2l0.6,0.3l1.1,0.5l2.4,1.2c6.1,3.3 11.5,7.1 17,10.2c2.7,1.6 5.5,2.9 8.3,4c0.7,0.2 1.4,0.5 2.1,0.7l1,0.3c0.4,0.1 0.8,0.2 1.1,0.3c0.7,0.1 1.3,0.3 2,0.3c0.7,0.1 1.4,0.2 2.1,0.2c5.6,0.3 11.2,-1.2 16.2,-3.4c2.5,-1.1 4.9,-2.5 7.1,-4l0.8,-0.6l0.7,-0.6c0.5,-0.4 1.1,-0.8 1.5,-1.2c0.4,-0.4 0.9,-0.8 1.3,-1.2c0.4,-0.5 0.9,-0.9 1.3,-1.3c1.7,-1.9 3.1,-3.9 4.3,-6c1.2,-2.1 2.2,-4.3 3.1,-6.4c1.8,-4.3 2.9,-8.6 3.5,-12.8c1.1,-8.4 0.2,-15.9 -1.6,-21.8c-0.9,-2.9 -2,-5.4 -3.2,-7.6c-0.3,-0.5 -0.6,-1 -0.9,-1.5s-0.6,-0.9 -0.9,-1.3c-0.5,-0.9 -1.1,-1.6 -1.6,-2.2c-1.1,-1.3 -1.9,-2.2 -2.6,-2.8c-0.6,-0.6 -0.9,-0.9 -0.9,-0.9s0.4,0.3 1,0.8c0.7,0.5 1.7,1.4 2.9,2.6c2.3,2.4 5.5,6.4 7.9,12.3c2.4,5.9 4.1,13.7 3.6,22.7c-0.3,4.5 -1,9.3 -2.7,14.2c-0.8,2.4 -1.9,4.9 -3.3,7.2c-1.4,2.3 -3,4.6 -4.9,6.8c-0.5,0.5 -1,1 -1.5,1.6c-0.5,0.5 -1.1,1 -1.7,1.5c-0.6,0.5 -1.1,0.9 -1.7,1.3l-0.9,0.7l-0.9,0.6c-2.4,1.6 -5,3.1 -7.8,4.4c-5.5,2.5 -11.8,4.2 -18.5,3.9c-0.8,0 -1.7,-0.2 -2.5,-0.2c-0.8,-0.1 -1.7,-0.3 -2.6,-0.5c-0.4,-0.1 -0.8,-0.2 -1.2,-0.3l-1.2,-0.3c-0.8,-0.3 -1.6,-0.5 -2.4,-0.8c-3.1,-1.2 -6.1,-2.7 -9,-4.3c-5.8,-3.3 -11.1,-7.1 -16.9,-10.2l-2.1,-1.1l-1.1,-0.5l-0.6,-0.3l-0.1,-0.1c-0.1,0 0.1,0 0,0l-0.3,-0.1c-1.6,-0.6 -3.1,-1.3 -4.7,-2s-3.2,-1.3 -4.7,-2l-2.4,-1l-2.3,-0.9c-6.4,-2.4 -13,-4.4 -19.7,-6s-13.6,-2.7 -20.6,-3c-7.1,-0.4 -14.2,-0.7 -21.3,-0.9c-7.1,-0.2 -14.2,0 -21.2,0.5l-2.6,0.2l-2.6,0.3c-0.9,0.1 -1.8,0.2 -2.6,0.4c-0.4,0.1 -0.9,0.1 -1.3,0.2l-1.3,0.2c-3.4,0.6 -6.8,1.3 -10.2,2.1c-6.7,1.6 -13.3,3.7 -19.7,6.1c-3.2,1.2 -6.4,2.4 -9.5,3.8c-1.5,0.6 -3.1,1.3 -4.6,2c-0.7,0.3 -1.5,0.7 -2.2,1l-2.2,1.1c-5.7,3.1 -11.1,6.9 -16.9,10.2c-1.4,0.8 -2.9,1.6 -4.4,2.3c-0.7,0.4 -1.5,0.7 -2.3,1s-1.6,0.6 -2.4,1c-0.7,0.3 -1.5,0.5 -2.2,0.8l-1.3,0.4c-0.4,0.1 -0.8,0.2 -1.2,0.3c-0.8,0.1 -1.7,0.3 -2.5,0.4c-0.8,0.1 -1.7,0.2 -2.5,0.2c-6.7,0.3 -13,-1.3 -18.5,-3.9c-0.7,-0.3 -1.4,-0.6 -2,-1c-0.7,-0.3 -1.3,-0.7 -2,-1.1c-0.6,-0.4 -1.3,-0.7 -1.9,-1.1l-1,-0.6l-0.9,-0.6c-2.4,-1.6 -4.7,-3.6 -6.7,-5.7c-1.9,-2.1 -3.5,-4.4 -4.9,-6.8c-1.4,-2.3 -2.5,-4.8 -3.4,-7.2c-1.6,-4.9 -2.4,-9.7 -2.7,-14.2c-0.5,-9 1.2,-16.8 3.6,-22.8c2.4,-6 5.6,-9.9 8,-12.3c1.2,-1.2 2.2,-2.1 2.9,-2.6c0.8,-0.6 1.1,-0.9 1.1,-0.9z" fill="#010101"/>
  </g>
  <path id="svg_5" d="m308.560494,287.807513c0,0 -39.7,-4.3 -89,22c7.4,25.9 19.7,52.5 37.1,73.1c11,13.1 34.4,25.9 52.1,26.5c17.8,-0.6 41.1,-13.3 52.1,-26.5c17.3,-20.6 29.4,-47.1 36.8,-72.9c-45.4,-27.8 -89.1,-22.2 -89.1,-22.2z" fill="#010101"/>
  <g id="svg_7">
   <path stroke="#000000" stroke-width="4" id="svg_8" d="m169.660494,267.407513c0,0 -0.8,0.1 -2.4,0.3c-1.5,0.2 -3.8,0.7 -6.6,1.4c-2.8,0.7 -6.2,1.7 -10,3c-3.8,1.3 -8.1,3 -12.6,4.9c-1.1,0.5 -2.3,1 -3.5,1.6c-1.2,0.5 -2.4,1.1 -3.5,1.7c-1.2,0.6 -2.4,1.2 -3.6,1.8c-1.2,0.6 -2.5,1.3 -3.7,2c-1.3,0.7 -2.5,1.4 -3.8,2.1s-2.5,1.5 -3.8,2.2c-2.5,1.6 -5.2,3.1 -7.8,4.8c-1.3,0.8 -2.6,1.7 -3.9,2.5c-1.3,0.9 -2.6,1.8 -3.9,2.7c-2.6,1.8 -5.2,3.7 -7.9,5.6c-2.6,1.9 -5.2,3.9 -7.8,5.9c-2.6,2.1 -5.1,4.2 -7.7,6.2c-2.5,2.1 -5,4.3 -7.6,6.4c-2.5,2.2 -4.9,4.4 -7.3,6.6c-2.4,2.2 -4.7,4.5 -7.1,6.6c-2.3,2.2 -4.5,4.4 -6.8,6.6c-2.3,2.1 -4.3,4.4 -6.4,6.5c-2.1,2.1 -4.2,4.2 -6.1,6.3c-1.9,2.1 -3.8,4.1 -5.7,6.1c-1.8,2 -3.5,3.9 -5.2,5.8c-3.4,3.7 -6.3,7.2 -9,10.2c-1.3,1.5 -2.6,3 -3.7,4.3s-2.2,2.6 -3.1,3.7c-1.9,2.2 -3.4,4 -4.4,5.2c-1,1.2 -1.6,1.8 -1.6,1.8s0.5,-0.7 1.3,-2c0.9,-1.3 2.2,-3.2 3.8,-5.6c0.8,-1.2 1.8,-2.5 2.8,-4c1,-1.4 2.2,-2.9 3.4,-4.6c1.2,-1.6 2.5,-3.4 3.9,-5.2c1.3,-1.8 2.9,-3.7 4.4,-5.7c1.6,-2 3.2,-4 4.9,-6.1c1.8,-2.1 3.6,-4.2 5.4,-6.4c1.8,-2.2 3.8,-4.4 5.8,-6.6c1,-1.1 2,-2.3 3.1,-3.4c1,-1.1 2.1,-2.3 3.2,-3.4c2.2,-2.3 4.4,-4.6 6.7,-6.9s4.6,-4.6 7,-6.8s4.9,-4.5 7.4,-6.7c2.5,-2.2 5.1,-4.4 7.6,-6.6c2.6,-2.1 5.2,-4.2 7.9,-6.3c2.7,-2 5.3,-4.1 8,-6c2.7,-1.9 5.4,-3.8 8.1,-5.6c1.4,-0.9 2.7,-1.8 4.1,-2.6c1.4,-0.8 2.7,-1.7 4.1,-2.5c1.3,-0.8 2.7,-1.6 4,-2.4c1.4,-0.8 2.7,-1.5 4,-2.2c1.3,-0.7 2.7,-1.4 4,-2.1c1.3,-0.7 2.6,-1.3 3.9,-2c5.2,-2.6 10.3,-4.6 15,-6.4s9.2,-3.1 13.1,-4.1c4,-1.1 7.5,-1.7 10.4,-2.1c2.9,-0.5 5.2,-0.6 6.8,-0.7c1.5,0.1 2.4,0.2 2.4,0.2z" fill="#010101"/>
  </g>
  <g id="svg_9">
   <path stroke="#000000" stroke-width="4" id="svg_10" d="m177.360494,281.107513c0,0 -0.6,0.6 -1.7,1.6c-1.1,1.1 -2.7,2.7 -4.7,4.7c-2,2 -4.4,4.5 -7.2,7.3c-2.8,2.8 -5.9,6 -9.2,9.5c-3.4,3.5 -7,7.3 -10.8,11.4c-3.8,4.1 -7.7,8.4 -11.8,12.9c-2,2.2 -4.1,4.6 -6.1,6.9c-2,2.4 -4.1,4.7 -6.2,7.2c-4.1,4.8 -8.3,9.8 -12.3,14.9l-3,3.8c-1,1.3 -2,2.5 -3,3.8c-2,2.5 -3.9,5.1 -5.8,7.6c-3.8,5.1 -7.4,10.2 -10.8,15.2c-1.7,2.5 -3.3,5 -4.9,7.4c-1.6,2.4 -3.1,4.9 -4.5,7.2c-1.4,2.4 -2.7,4.7 -4.1,7c-1.3,2.3 -2.5,4.5 -3.6,6.6c-1.2,2.1 -2.1,4.2 -3.1,6.2s-1.9,3.9 -2.7,5.7c-1.7,3.6 -2.9,6.8 -3.9,9.4c-0.6,1.3 -0.9,2.5 -1.3,3.6c-0.4,1 -0.7,1.9 -0.9,2.6c-0.5,1.4 -0.8,2.2 -0.8,2.2s0.2,-0.8 0.5,-2.3c0.2,-0.7 0.4,-1.7 0.6,-2.7c0.2,-1.1 0.5,-2.3 0.9,-3.7c0.8,-2.7 1.7,-6.1 3.1,-9.8c0.7,-1.9 1.4,-3.9 2.2,-5.9c0.4,-1 0.9,-2.1 1.3,-3.2c0.4,-1.1 0.9,-2.2 1.4,-3.3c1,-2.2 2.1,-4.6 3.3,-6.9s2.5,-4.8 3.8,-7.3c1.4,-2.4 2.8,-5 4.3,-7.5c1.5,-2.5 3.1,-5.1 4.7,-7.7c3.3,-5.1 6.8,-10.4 10.6,-15.6c1.9,-2.6 3.8,-5.2 5.8,-7.8s4,-5.2 6,-7.7c4.1,-5.1 8.3,-10 12.5,-14.9c4.2,-4.8 8.5,-9.5 12.7,-13.9c4.2,-4.5 8.4,-8.6 12.3,-12.5c2,-2 3.9,-3.9 5.9,-5.7c1.9,-1.8 3.8,-3.5 5.6,-5.2c7.2,-6.6 13.4,-11.9 17.8,-15.5c2.2,-1.8 4,-3.2 5.2,-4.1c1.2,-1 1.9,-1.5 1.9,-1.5z" fill="#010101"/>
  </g>
  <g id="svg_11">
   <path stroke="#000000" stroke-width="4" id="svg_12" d="m193.660494,289.307513c0,0 -0.4,0.7 -1.2,2.1c-0.8,1.3 -1.9,3.3 -3.3,5.8c-1.4,2.5 -3.1,5.6 -5.1,9.1c-1.9,3.5 -4.1,7.5 -6.4,11.9c-1.2,2.2 -2.4,4.5 -3.6,6.8c-1.2,2.4 -2.5,4.8 -3.8,7.3c-2.6,5 -5.2,10.4 -8,15.9c-2.7,5.5 -5.4,11.3 -8.2,17.2c-2.7,5.9 -5.4,11.9 -8,18c-1.3,3 -2.6,6.1 -3.8,9.1c-1.2,3 -2.5,6.1 -3.6,9.1c-2.3,6.1 -4.6,12 -6.6,17.8c-0.5,1.5 -1,2.9 -1.5,4.3c-0.5,1.4 -0.9,2.9 -1.4,4.3c-0.5,1.4 -0.9,2.8 -1.4,4.2c-0.4,1.4 -0.8,2.8 -1.2,4.1c-0.8,2.7 -1.6,5.3 -2.3,7.9c-0.7,2.6 -1.5,5 -2,7.4c-0.6,2.4 -1.2,4.7 -1.7,6.9c-0.5,2.2 -0.9,4.3 -1.4,6.2c-0.5,2 -0.8,3.8 -1.1,5.5c-0.3,1.7 -0.6,3.3 -0.9,4.7c-0.9,5.7 -1.5,9 -1.5,9s0,-0.8 0.1,-2.4c0.1,-1.5 0.1,-3.8 0.4,-6.7c0.1,-1.4 0.3,-3 0.5,-4.8c0.2,-1.7 0.4,-3.6 0.7,-5.6s0.6,-4.1 0.9,-6.4c0.4,-2.2 0.8,-4.6 1.3,-7c0.9,-4.9 2.1,-10.2 3.5,-15.7c0.4,-1.4 0.7,-2.8 1.1,-4.2s0.8,-2.8 1.2,-4.3c0.8,-2.9 1.7,-5.8 2.6,-8.8s1.9,-6 3,-9c1,-3.1 2.1,-6.1 3.3,-9.2c2.3,-6.1 4.8,-12.3 7.3,-18.4c2.7,-6.1 5.4,-12.1 8.2,-18c0.7,-1.5 1.4,-2.9 2.1,-4.4c0.7,-1.4 1.5,-2.9 2.2,-4.3c1.4,-2.9 2.9,-5.7 4.3,-8.4c1.4,-2.8 2.9,-5.4 4.3,-8.1c1.5,-2.6 2.9,-5.2 4.3,-7.6c2.8,-5 5.6,-9.6 8.2,-13.8c2.6,-4.2 5.1,-8.1 7.3,-11.4c2.2,-3.4 4.2,-6.3 5.9,-8.7s3,-4.2 3.9,-5.5c0.9,-1.2 1.4,-1.9 1.4,-1.9z" fill="#010101"/>
  </g>
  <path stroke="#000000" stroke-width="11" id="svg_23" d="m308.560494,312.574964c0,0 -38.8,-8.785151 -78.2,13.022694c5.9,21.291072 19.6,47.026396 34.7,61.496056c10.1,9.611989 29.5,20.257524 43.7,20.774298c14.2,-0.516774 30.9,-10.025407 41.7,-18.707204c13.6,-10.852245 30.5,-42.06537 36.4,-63.356441c-36.3,-23.048102 -78.3,-13.229404 -78.3,-13.229404z" fill="#ffaaaa"/>
  <g id="svg_27">
   <path stroke="#000000" stroke-width="4" id="svg_28" d="m448.060494,267.407513c0,0 0.8,0 2.4,0c1.6,0.1 3.9,0.2 6.8,0.7c2.9,0.5 6.4,1.1 10.4,2.1c4,1 8.4,2.3 13.1,4.1c4.7,1.8 9.8,3.8 15,6.4c1.3,0.6 2.6,1.3 3.9,2c1.3,0.7 2.7,1.4 4,2.1s2.7,1.5 4,2.2c1.4,0.7 2.7,1.5 4,2.4c1.3,0.8 2.7,1.6 4.1,2.5c1.3,0.9 2.7,1.7 4.1,2.6c2.7,1.7 5.4,3.6 8.1,5.6c2.7,1.9 5.3,4 8,6c2.6,2.1 5.2,4.2 7.9,6.3c2.5,2.2 5.1,4.4 7.6,6.6c2.5,2.3 4.9,4.5 7.4,6.7c2.4,2.3 4.7,4.6 7,6.8c2.3,2.3 4.5,4.6 6.7,6.9c1.1,1.1 2.2,2.3 3.2,3.4c1,1.1 2.1,2.3 3.1,3.4c2,2.2 4,4.4 5.8,6.6c1.9,2.2 3.7,4.3 5.4,6.4c1.7,2.1 3.3,4.2 4.9,6.1c1.5,2 3.1,3.8 4.4,5.7c1.4,1.8 2.7,3.6 3.9,5.2c1.2,1.6 2.4,3.2 3.4,4.6c1,1.4 1.9,2.8 2.8,4c1.7,2.4 2.9,4.3 3.8,5.6c0.9,1.3 1.3,2 1.3,2s-0.5,-0.6 -1.6,-1.8c-1,-1.2 -2.5,-2.9 -4.4,-5.2c-0.9,-1.1 -2,-2.3 -3.1,-3.7c-1.2,-1.3 -2.4,-2.8 -3.7,-4.3c-2.7,-3.1 -5.6,-6.5 -9,-10.2c-1.7,-1.9 -3.4,-3.8 -5.2,-5.8c-1.8,-2 -3.7,-4 -5.7,-6.1c-1.9,-2.1 -4,-4.2 -6.1,-6.3c-2.1,-2.1 -4.2,-4.4 -6.4,-6.5c-2.2,-2.2 -4.5,-4.4 -6.8,-6.6c-2.3,-2.2 -4.7,-4.4 -7.1,-6.6c-2.4,-2.2 -4.9,-4.4 -7.3,-6.6c-2.5,-2.1 -5,-4.3 -7.6,-6.4c-2.6,-2.1 -5.1,-4.2 -7.7,-6.2c-2.6,-2 -5.2,-4 -7.8,-5.9c-2.7,-1.9 -5.2,-3.8 -7.9,-5.6c-1.3,-0.9 -2.6,-1.8 -3.9,-2.7c-1.3,-0.9 -2.6,-1.7 -3.9,-2.5c-2.6,-1.7 -5.2,-3.2 -7.8,-4.8c-1.3,-0.7 -2.6,-1.5 -3.8,-2.2c-1.3,-0.7 -2.5,-1.4 -3.8,-2.1c-1.3,-0.7 -2.5,-1.3 -3.7,-2c-1.2,-0.6 -2.5,-1.2 -3.6,-1.8c-1.2,-0.6 -2.4,-1.2 -3.5,-1.7c-1.2,-0.5 -2.3,-1.1 -3.5,-1.6c-4.5,-2 -8.8,-3.6 -12.6,-4.9s-7.2,-2.3 -10,-3c-2.8,-0.7 -5.1,-1.2 -6.6,-1.4c-1.5,-0.5 -2.4,-0.5 -2.4,-0.5z" fill="#010101"/>
  </g>
  <g id="svg_29">
   <path stroke="#000000" stroke-width="4" id="svg_30" d="m440.360494,281.107513c0,0 0.6,0.5 1.8,1.4s3,2.3 5.2,4.1c4.4,3.6 10.6,8.9 17.8,15.5c1.8,1.7 3.6,3.4 5.6,5.2c1.9,1.8 3.9,3.7 5.9,5.7c4,3.9 8.2,8.1 12.3,12.5c4.2,4.4 8.5,9.1 12.7,13.9c4.2,4.9 8.4,9.8 12.5,14.9c2,2.5 4.1,5.1 6,7.7c2,2.6 3.9,5.2 5.8,7.8c3.8,5.2 7.3,10.5 10.6,15.6c1.7,2.6 3.2,5.2 4.7,7.7c1.5,2.5 2.9,5.1 4.3,7.5c1.3,2.5 2.6,4.9 3.8,7.3c1.2,2.4 2.2,4.7 3.3,6.9c0.5,1.1 1,2.2 1.4,3.3s0.9,2.1 1.3,3.2c0.9,2.1 1.6,4.1 2.2,5.9c1.4,3.7 2.3,7.1 3.1,9.8c0.4,1.4 0.7,2.6 0.9,3.7c0.2,1.1 0.4,2 0.6,2.7c0.3,1.5 0.5,2.3 0.5,2.3s-0.3,-0.8 -0.8,-2.2c-0.3,-0.7 -0.6,-1.6 -0.9,-2.6c-0.4,-1 -0.7,-2.2 -1.3,-3.6c-1.1,-2.6 -2.3,-5.8 -3.9,-9.4c-0.8,-1.8 -1.6,-3.7 -2.7,-5.7c-1,-2 -2,-4.1 -3.1,-6.2c-1.2,-2.1 -2.3,-4.4 -3.6,-6.6s-2.6,-4.6 -4.1,-7c-1.5,-2.3 -2.9,-4.8 -4.5,-7.2c-1.6,-2.4 -3.2,-4.9 -4.9,-7.4c-3.4,-5 -7.1,-10.1 -10.8,-15.2c-1.9,-2.6 -3.8,-5.1 -5.8,-7.6c-1,-1.3 -2,-2.5 -3,-3.8l-3,-3.8c-4,-5.1 -8.2,-10 -12.3,-14.9c-2.1,-2.4 -4.1,-4.8 -6.2,-7.2c-2.1,-2.3 -4.1,-4.7 -6.1,-6.9c-4.1,-4.5 -8,-8.9 -11.8,-12.9c-3.8,-4.1 -7.4,-7.9 -10.8,-11.4c-3.4,-3.5 -6.5,-6.7 -9.2,-9.5c-2.8,-2.8 -5.2,-5.3 -7.2,-7.3c-2,-2 -3.6,-3.6 -4.7,-4.7c-1,-0.9 -1.6,-1.5 -1.6,-1.5z" fill="#010101"/>
  </g>
  <g id="svg_31">
   <path stroke="#000000" stroke-width="4" id="svg_32" d="m424.060494,289.307513c0,0 0.5,0.7 1.4,1.9c0.9,1.3 2.3,3.1 3.9,5.5c1.7,2.4 3.7,5.3 5.9,8.7c2.2,3.4 4.7,7.2 7.3,11.4c2.6,4.2 5.4,8.8 8.2,13.8c1.4,2.5 2.8,5 4.3,7.6c1.4,2.6 2.9,5.3 4.3,8.1c1.4,2.8 2.9,5.6 4.3,8.4c0.7,1.4 1.4,2.9 2.2,4.3c0.7,1.5 1.4,2.9 2.1,4.4c2.8,5.9 5.5,12 8.2,18c2.6,6.1 5,12.3 7.3,18.4c1.1,3.1 2.3,6.1 3.3,9.2c1,3 2,6 3,9c0.9,3 1.9,5.9 2.6,8.8c0.4,1.4 0.8,2.9 1.2,4.3c0.4,1.4 0.7,2.8 1.1,4.2c1.5,5.5 2.6,10.8 3.5,15.7c0.4,2.5 0.9,4.8 1.3,7c0.3,2.2 0.6,4.4 0.9,6.4s0.5,3.9 0.7,5.6s0.3,3.3 0.5,4.8c0.2,2.9 0.3,5.2 0.4,6.7s0.1,2.4 0.1,2.4s-0.5,-3.3 -1.5,-9c-0.3,-1.4 -0.6,-3 -0.9,-4.7c-0.3,-1.7 -0.6,-3.6 -1.1,-5.5c-0.4,-2 -0.9,-4 -1.4,-6.2s-1.1,-4.5 -1.7,-6.9c-0.6,-2.4 -1.3,-4.9 -2,-7.4c-0.7,-2.6 -1.5,-5.2 -2.3,-7.9c-0.4,-1.4 -0.8,-2.7 -1.2,-4.1c-0.5,-1.4 -0.9,-2.8 -1.4,-4.2c-0.5,-1.4 -0.9,-2.8 -1.4,-4.3c-0.5,-1.4 -1,-2.9 -1.5,-4.3c-2,-5.8 -4.3,-11.8 -6.6,-17.8c-1.1,-3 -2.4,-6 -3.6,-9.1c-1.2,-3 -2.5,-6.1 -3.8,-9.1c-2.6,-6.1 -5.2,-12.1 -8,-18c-2.7,-5.9 -5.4,-11.7 -8.2,-17.2c-2.7,-5.5 -5.4,-10.9 -8,-15.9c-1.3,-2.5 -2.6,-5 -3.8,-7.3c-1.2,-2.4 -2.4,-4.6 -3.6,-6.8c-2.4,-4.4 -4.5,-8.3 -6.4,-11.9c-2,-3.5 -3.7,-6.6 -5.1,-9.1c-1.4,-2.5 -2.6,-4.5 -3.3,-5.8c-0.7,-1.3 -1.2,-2.1 -1.2,-2.1z" fill="#010101"/>
  </g>
  <g id="svg_41">
   <ellipse stroke-width="11" stroke="#000000" id="svg_21" ry="27.8" rx="24.1" cy="169.451958" cx="400.764198" fill="#010101"/>
   <ellipse id="svg_25" ry="6.9" rx="6" cy="159.051958" cx="393.864198" fill="#FFFFFF"/>
  </g>
  <g id="svg_42">
   <ellipse stroke-width="11" stroke="#000000" id="svg_22" ry="27.8" rx="24.1" cy="169.451958" cx="212.371605" fill="#010101"/>
   <ellipse id="svg_24" ry="6.9" rx="6" cy="159.051958" cx="205.471605" fill="#FFFFFF"/>
  </g>
 </g>
</svg>